<svg viewBox="0 0 29 27">
  <path d="M27.7617 14.875L17.707 14.9258C16.9453 14.9258 16.5898 15.7891 17.0977 16.2969L23.75 22.9492C24.0039 23.1523 24.4609 23.3047 24.8672 22.9492C26.8477 21.1211 28.168 18.6328 28.5742 15.7891C28.6758 15.332 28.2695 14.875 27.7617 14.875ZM24.3086 21.2227L19.6367 16.5H26.7969C26.3906 18.2773 25.5273 19.8516 24.3086 21.2227ZM12.375 14.875V2.83984C12.375 2.38281 11.9688 2.02734 11.5625 2.02734C11.5117 2.02734 11.4609 2.02734 11.4609 2.02734C5.41797 2.89062 0.746094 8.12109 1.05078 14.5195C1.20312 20.9688 6.73828 26.25 13.1875 26.25C13.2383 26.25 13.2383 26.25 13.2891 26.25C15.8789 26.25 18.2148 25.4375 20.1953 24.0156C20.6016 23.7617 20.6016 23.1523 20.2461 22.7969L12.375 14.875ZM13.2891 24.625C7.39844 24.625 2.77734 19.8008 2.625 14.4688C2.42188 9.39062 5.875 4.97266 10.75 3.80469V14.875C10.75 15.332 10.9023 15.7383 11.207 16.043L18.418 23.2539C16.8438 24.168 15.1172 24.625 13.2891 24.625ZM26.9492 11.625C26.4922 5.53125 21.668 0.757812 15.5742 0.25C15.0664 0.25 14.7617 0.707031 14.7617 1.11328V11.625C14.7617 12.082 15.1172 12.4375 15.5742 12.4375H26.0859C26.5938 12.4375 27 12.082 26.9492 11.625ZM16.3867 10.8125V1.97656C20.957 2.6875 24.5625 6.29297 25.2734 10.8125H16.3867Z" fill="#004D90"/>
</svg>
