<svg viewBox="0 0 25 27">
  <path d="M23.1133 17.2617C21.6914 15.9414 20.625 14.5195 20.625 9.69531C20.625 5.68359 17.375 2.38281 13.3125 1.97656V1.0625C13.3125 0.65625 12.9062 0.25 12.5 0.25C12.043 0.25 11.6875 0.65625 11.6875 1.0625V1.97656C7.57422 2.38281 4.32422 5.68359 4.32422 9.69531C4.32422 14.5195 3.20703 15.9414 1.78516 17.2617C1.07422 17.9727 0.871094 18.9883 1.22656 19.9023C1.63281 20.8164 2.54688 21.375 3.51172 21.375H21.3867C22.4023 21.375 23.3164 20.8164 23.6719 19.9023C24.0273 18.9883 23.8242 17.9727 23.1133 17.2617ZM21.4375 19.75H3.51172C2.80078 19.75 2.44531 18.9375 2.95312 18.4805C4.73047 16.8047 5.94922 14.9258 5.94922 9.74609C5.94922 6.29297 8.89453 3.5 12.5 3.5C16.0547 3.5 19 6.29297 19 9.69531C19 14.875 20.2188 16.7539 21.9961 18.4297C22.5039 18.9375 22.1484 19.75 21.4375 19.75ZM14.9375 23C14.5312 23 14.1758 23.2539 14.0742 23.5586C13.8203 24.2188 13.2109 24.625 12.4492 24.625C11.6367 24.625 11.0781 24.2188 10.8242 23.5586C10.7734 23.2539 10.418 23 10.0117 23C9.50391 23 9.09766 23.5078 9.25 24.0156C9.70703 25.3359 10.9766 26.25 12.4492 26.25C13.9219 26.25 15.1914 25.3359 15.6484 24.0156C15.8516 23.5078 15.4453 23 14.9375 23Z" fill="#004D90"/>
</svg>
